# xmcd
#
# Track frame offsets:
#	180
#	15971
#	34918
#	49480
#	62718
#	80840
#	99444
#	114805
#	130957
#	143911
#	162576
#	181365
#	197101
#	211342
#	226611
#	243053
#	258560
#	274453
#
# Disc length: 3887 seconds
#
# Revision: 1
# Processed by: cddbd v1.5.2PL0 Copyright (c) Steve Scherf et al.
# Submitted via: audiograbber 1.83.01
#
DISCID=fe0f2d12
DTITLE=Juice Newton - Mis Momentos
DYEAR=1997
DGENRE=Country
TTITLE0=It's a Heartache
TTITLE1=Angel of the Morning
TTITLE2=Love's Been a Little Bit Hard on Me
TTITLE3=So Many Ways
TTITLE4=Break it to me Gently
TTITLE5=The Sweetest Thing (I've Ever Known)
TTITLE6=Queen of Hearts
TTITLE7=Tell Her No
TTITLE8=Low Down and Lonesome
TTITLE9=Heart of the Night
TTITLE10=Adios mi Corazón
TTITLE11=Falling in Love
TTITLE12=Hey Baby
TTITLE13=Shot Full of Love
TTITLE14=I'm Gonna be Strong
TTITLE15=Love Sail Away
TTITLE16=Lay Back in the Arms of Someone
TTITLE17=Dirty Looks
EXTD=
EXTT0=
EXTT1=
EXTT2=
EXTT3=
EXTT4=
EXTT5=
EXTT6=
EXTT7=
EXTT8=
EXTT9=
EXTT10=
EXTT11=
EXTT12=
EXTT13=
EXTT14=
EXTT15=
EXTT16=
EXTT17=
PLAYORDER=
